<?xml version="1.0" encoding="UTF-8"?>
<svg width="168px" height="165px" viewBox="0 0 168 165" version="1.1" xmlns="http://www.w3.org/2000/svg" xmlns:xlink="http://www.w3.org/1999/xlink">
    <!-- Generator: Sketch 50.2 (55047) - http://www.bohemiancoding.com/sketch -->
    <title>mittens</title>
    <desc>Created with Sketch.</desc>
    <defs></defs>
    <g id="Symbols" stroke="none" stroke-width="1" fill="none" fill-rule="evenodd">
        <g id="happy-mittens">
            <path d="M124,110 L124,121.080124 C117.380497,129.776332 110.182111,136.254142 102.404843,140.513555 C90.7389403,146.902675 74.3271999,146.073954 64.2243149,140.513555 C57.4890582,136.806623 50.0809533,130.328812 42,121.080124 L42,110" id="Path-9" stroke="#2F2109" stroke-width="4" fill="#8CC6FF"></path>
            <path d="M67.3222249,131.299588 C63.9947247,129.162114 54.688463,119.847034 39.4034398,103.354349 C32.3515673,107.377764 28.8256311,107.377764 28.8256311,103.354349 C28.8256311,97.3192259 7,75.6522188 7,69.0764298 C7,62.5006407 38.4159287,20.4645272 42.6881401,20.4645272 C45.5362811,20.4645272 47.6568232,21.9992909 49.0497665,25.0688183 C53.752627,15.0229394 65.8502086,10 85.3425112,10 C104.834814,10 116.402855,15.0229394 120.046636,25.0688183 C123.44502,21.1761961 126.958575,20.5109206 130.587301,23.0729916 C136.03039,26.9160982 161,62.5655918 161,69.0764298 C161,75.5872677 133.39898,95.5501356 136.108006,103.354349 C137.914023,108.557158 134.382107,109.696285 125.512259,106.771729 C111.461376,120.954898 102.281901,129.130851 97.9738313,131.299588 C93.665762,133.468324 89.0078182,134.330755 84,133.88688 C76.2089835,134.299492 70.6497251,133.437061 67.3222249,131.299588 Z" id="Path-2" stroke="#000000" stroke-width="7" fill="#F9CC82" stroke-linecap="round" stroke-linejoin="round"></path>
            <path d="M53,20 C45.475496,32.4763884 32,54.3556952 32,64.6975539 C32,71.5921264 36.7381217,86.6929418 46.2143652,110" id="Path-8" stroke="#E6B768" stroke-width="5"></path>
            <path d="M132.097467,25 C124.786778,37.0393652 115,56.744585 115,66.7241889 C115,73.3772582 122,89.8025285 136,116" id="Path-8" stroke="#E6B768" stroke-width="5" transform="translate(125.500000, 70.500000) scale(-1, 1) translate(-125.500000, -70.500000) "></path>
            <path d="M67.3222249,131.299588 C63.9947247,129.162114 54.688463,119.847034 39.4034398,103.354349 C32.3515673,107.377764 28.8256311,107.377764 28.8256311,103.354349 C28.8256311,97.3192259 7,75.6522188 7,69.0764298 C7,62.5006407 38.4159287,20.4645272 42.6881401,20.4645272 C45.5362811,20.4645272 47.6568232,21.9992909 49.0497665,25.0688183 C53.752627,15.0229394 65.8502086,10 85.3425112,10 C104.834814,10 116.402855,15.0229394 120.046636,25.0688183 C123.44502,21.1761961 126.958575,20.5109206 130.587301,23.0729916 C136.03039,26.9160982 161,62.5655918 161,69.0764298 C161,75.5872677 133.39898,95.5501356 136.108006,103.354349 C137.914023,108.557158 134.382107,109.696285 125.512259,106.771729 C111.461376,120.954898 102.281901,129.130851 97.9738313,131.299588 C93.665762,133.468324 89.0078182,134.330755 84,133.88688 C76.2089835,134.299492 70.6497251,133.437061 67.3222249,131.299588 Z" id="Path-2" stroke="#2F2109" stroke-width="7" stroke-linecap="round" stroke-linejoin="round"></path>
            <path d="M106,107 C103.93032,113 99.6197945,116 93.0684247,116 C86.5170549,116 83.1630528,113 83.0064184,107 C82.5708165,113 79.001039,116 72.2970861,116 C65.5931332,116 61.8274379,113 61,107" id="Path-3" stroke="#2F2109" stroke-width="6" stroke-linecap="round" stroke-linejoin="round"></path>
            <path d="M83,97.3903402 L83,108.49701" id="Path-4" stroke="#2F2109" stroke-width="6" stroke-linecap="round" stroke-linejoin="round"></path>
            <path d="M82.7872965,103 C92.9290988,96.1254762 98,91.4142687 98,88.8663775 C98,85.0445408 70,85.0445408 70,88.8663775 C70,91.4142687 74.2624322,96.1254762 82.7872965,103 Z" id="Path-5" fill="#2F2109"></path>
            <path d="M60.7086155,49.1802317 C65.0650629,47.9664381 71.6358615,52.9654044 70.950387,61.7027434 C70.2649126,70.4400823 67.2569676,63.669511 61.1449707,60.4718272 C55.0329739,57.2741435 52.5864427,60.8991346 51.1911364,56.7281939 C49.7958301,52.5572531 56.3521682,50.3940253 60.7086155,49.1802317 Z" id="Path-6" fill="#2F2109" transform="translate(61.000000, 57.500000) scale(-1, 1) translate(-61.000000, -57.500000) "></path>
            <path d="M105.708616,49.1802317 C110.065063,47.9664381 116.635862,52.9654044 115.950387,61.7027434 C115.264913,70.4400823 112.256968,63.669511 106.144971,60.4718272 C100.032974,57.2741435 97.5864427,60.8991346 96.1911364,56.7281939 C94.7958301,52.5572531 101.352168,50.3940253 105.708616,49.1802317 Z" id="Path-6" fill="#2F2109"></path>
            <path d="" id="Path-7" stroke="#979797"></path>
            <circle id="Oval" stroke="#2F2109" stroke-width="4" fill="#F9CC82" cx="82" cy="146" r="9"></circle>
        </g>
    </g>
</svg>